<mxfile modified="2021-06-09T20:49:33.280Z" host="app.diagrams.net" agent="5.0 (Macintosh; Intel Mac OS X 10_15_7) AppleWebKit/537.36 (KHTML, like Gecko) Chrome/90.0.4430.212 Safari/537.36 OPR/76.0.4017.177" etag="XeGIEq9sIi9fl1imjykB" version="14.7.6" type="github">
  <diagram id="Ht1M8jgEwFfnCIfOTk4-" name="Page-1">
    <mxGraphModel dx="1146" dy="1603" grid="1" gridSize="10" guides="1" tooltips="1" connect="1" arrows="1" fold="1" page="1" pageScale="1" pageWidth="1169" pageHeight="827" math="0" shadow="0">
      <root>
        <mxCell id="0" />
        <mxCell id="1" parent="0" />
        <mxCell id="h0SpUzx_nKiekiLCNmhv-20" style="edgeStyle=orthogonalEdgeStyle;rounded=0;orthogonalLoop=1;jettySize=auto;html=1;entryX=1;entryY=0.5;entryDx=0;entryDy=0;entryPerimeter=0;" edge="1" parent="1" source="UEzPUAAOIrF-is8g5C7q-145" target="h0SpUzx_nKiekiLCNmhv-7">
          <mxGeometry relative="1" as="geometry" />
        </mxCell>
        <mxCell id="UEzPUAAOIrF-is8g5C7q-145" value="Amazon SNS" style="outlineConnect=0;fontColor=#232F3E;gradientColor=#F34482;gradientDirection=north;fillColor=#BC1356;strokeColor=#ffffff;dashed=0;verticalLabelPosition=bottom;verticalAlign=top;align=center;html=1;fontSize=12;fontStyle=0;aspect=fixed;shape=mxgraph.aws4.resourceIcon;resIcon=mxgraph.aws4.sns;labelBackgroundColor=#ffffff;spacingTop=5;" parent="1" vertex="1">
          <mxGeometry x="585" y="-78" width="78" height="78" as="geometry" />
        </mxCell>
        <mxCell id="h0SpUzx_nKiekiLCNmhv-26" style="edgeStyle=orthogonalEdgeStyle;rounded=0;orthogonalLoop=1;jettySize=auto;html=1;entryX=0;entryY=0.5;entryDx=0;entryDy=0;entryPerimeter=0;" edge="1" parent="1" source="h0SpUzx_nKiekiLCNmhv-4" target="h0SpUzx_nKiekiLCNmhv-5">
          <mxGeometry relative="1" as="geometry" />
        </mxCell>
        <mxCell id="h0SpUzx_nKiekiLCNmhv-4" value="RDS" style="outlineConnect=0;fontColor=#232F3E;gradientColor=none;fillColor=#3334B9;strokeColor=none;dashed=0;verticalLabelPosition=bottom;verticalAlign=top;align=center;html=1;fontSize=12;fontStyle=0;aspect=fixed;pointerEvents=1;shape=mxgraph.aws4.rds_instance;" vertex="1" parent="1">
          <mxGeometry x="230" y="-240" width="80" height="80" as="geometry" />
        </mxCell>
        <mxCell id="h0SpUzx_nKiekiLCNmhv-6" style="edgeStyle=orthogonalEdgeStyle;rounded=0;orthogonalLoop=1;jettySize=auto;html=1;" edge="1" parent="1" source="h0SpUzx_nKiekiLCNmhv-5" target="h0SpUzx_nKiekiLCNmhv-4">
          <mxGeometry relative="1" as="geometry" />
        </mxCell>
        <mxCell id="h0SpUzx_nKiekiLCNmhv-21" style="edgeStyle=orthogonalEdgeStyle;rounded=0;orthogonalLoop=1;jettySize=auto;html=1;" edge="1" parent="1" source="h0SpUzx_nKiekiLCNmhv-5" target="h0SpUzx_nKiekiLCNmhv-14">
          <mxGeometry relative="1" as="geometry" />
        </mxCell>
        <mxCell id="h0SpUzx_nKiekiLCNmhv-28" style="edgeStyle=orthogonalEdgeStyle;rounded=0;orthogonalLoop=1;jettySize=auto;html=1;" edge="1" parent="1" source="h0SpUzx_nKiekiLCNmhv-5" target="h0SpUzx_nKiekiLCNmhv-10">
          <mxGeometry relative="1" as="geometry" />
        </mxCell>
        <mxCell id="h0SpUzx_nKiekiLCNmhv-5" value="EC2" style="points=[[0,0,0],[0.25,0,0],[0.5,0,0],[0.75,0,0],[1,0,0],[0,1,0],[0.25,1,0],[0.5,1,0],[0.75,1,0],[1,1,0],[0,0.25,0],[0,0.5,0],[0,0.75,0],[1,0.25,0],[1,0.5,0],[1,0.75,0]];outlineConnect=0;fontColor=#232F3E;gradientColor=#F78E04;gradientDirection=north;fillColor=#D05C17;strokeColor=#ffffff;dashed=0;verticalLabelPosition=bottom;verticalAlign=top;align=center;html=1;fontSize=12;fontStyle=0;aspect=fixed;shape=mxgraph.aws4.resourceIcon;resIcon=mxgraph.aws4.ec2;" vertex="1" parent="1">
          <mxGeometry x="400" y="-240" width="80" height="80" as="geometry" />
        </mxCell>
        <mxCell id="h0SpUzx_nKiekiLCNmhv-19" style="edgeStyle=orthogonalEdgeStyle;rounded=0;orthogonalLoop=1;jettySize=auto;html=1;" edge="1" parent="1" source="h0SpUzx_nKiekiLCNmhv-7" target="h0SpUzx_nKiekiLCNmhv-4">
          <mxGeometry relative="1" as="geometry" />
        </mxCell>
        <mxCell id="h0SpUzx_nKiekiLCNmhv-7" value="Lambda" style="points=[[0,0,0],[0.25,0,0],[0.5,0,0],[0.75,0,0],[1,0,0],[0,1,0],[0.25,1,0],[0.5,1,0],[0.75,1,0],[1,1,0],[0,0.25,0],[0,0.5,0],[0,0.75,0],[1,0.25,0],[1,0.5,0],[1,0.75,0]];outlineConnect=0;fontColor=#232F3E;gradientColor=#F78E04;gradientDirection=north;fillColor=#D05C17;strokeColor=#ffffff;dashed=0;verticalLabelPosition=bottom;verticalAlign=top;align=center;html=1;fontSize=12;fontStyle=0;aspect=fixed;shape=mxgraph.aws4.resourceIcon;resIcon=mxgraph.aws4.lambda;" vertex="1" parent="1">
          <mxGeometry x="410" y="-78" width="78" height="78" as="geometry" />
        </mxCell>
        <mxCell id="h0SpUzx_nKiekiLCNmhv-25" style="edgeStyle=orthogonalEdgeStyle;rounded=0;orthogonalLoop=1;jettySize=auto;html=1;" edge="1" parent="1" source="h0SpUzx_nKiekiLCNmhv-9" target="h0SpUzx_nKiekiLCNmhv-10">
          <mxGeometry relative="1" as="geometry" />
        </mxCell>
        <mxCell id="h0SpUzx_nKiekiLCNmhv-9" value="Stripo" style="shape=image;verticalLabelPosition=bottom;labelBackgroundColor=#ffffff;verticalAlign=top;aspect=fixed;imageAspect=0;image=https://logopond.com/logos/8759dada598c35bf7fa596291702a554.png;" vertex="1" parent="1">
          <mxGeometry x="564.5" y="-462" width="100" height="80" as="geometry" />
        </mxCell>
        <mxCell id="h0SpUzx_nKiekiLCNmhv-12" style="edgeStyle=orthogonalEdgeStyle;rounded=0;orthogonalLoop=1;jettySize=auto;html=1;" edge="1" parent="1" source="h0SpUzx_nKiekiLCNmhv-10" target="h0SpUzx_nKiekiLCNmhv-5">
          <mxGeometry relative="1" as="geometry" />
        </mxCell>
        <mxCell id="h0SpUzx_nKiekiLCNmhv-10" value="Our Apps" style="aspect=fixed;html=1;points=[];align=center;image;fontSize=12;image=img/lib/azure2/app_services/App_Service_Domains.svg;" vertex="1" parent="1">
          <mxGeometry x="400" y="-454" width="80" height="64" as="geometry" />
        </mxCell>
        <mxCell id="h0SpUzx_nKiekiLCNmhv-17" style="edgeStyle=orthogonalEdgeStyle;rounded=0;orthogonalLoop=1;jettySize=auto;html=1;" edge="1" parent="1" source="h0SpUzx_nKiekiLCNmhv-14" target="UEzPUAAOIrF-is8g5C7q-145">
          <mxGeometry relative="1" as="geometry" />
        </mxCell>
        <mxCell id="h0SpUzx_nKiekiLCNmhv-14" value="SES" style="outlineConnect=0;dashed=0;verticalLabelPosition=bottom;verticalAlign=top;align=center;html=1;shape=mxgraph.aws3.ses;fillColor=#D9A741;gradientColor=none;" vertex="1" parent="1">
          <mxGeometry x="585" y="-246.5" width="79.5" height="93" as="geometry" />
        </mxCell>
        <mxCell id="h0SpUzx_nKiekiLCNmhv-23" style="edgeStyle=orthogonalEdgeStyle;rounded=0;orthogonalLoop=1;jettySize=auto;html=1;" edge="1" parent="1" source="h0SpUzx_nKiekiLCNmhv-22" target="h0SpUzx_nKiekiLCNmhv-10">
          <mxGeometry relative="1" as="geometry" />
        </mxCell>
        <mxCell id="h0SpUzx_nKiekiLCNmhv-22" value="&lt;br&gt;&lt;br&gt;User" style="shape=actor;whiteSpace=wrap;html=1;" vertex="1" parent="1">
          <mxGeometry x="240" y="-452" width="40" height="60" as="geometry" />
        </mxCell>
      </root>
    </mxGraphModel>
  </diagram>
</mxfile>
